<svg width="99" height="68" viewBox="0 0 99 68" fill="none" xmlns="http://www.w3.org/2000/svg">
    <g clip-path="url(#clip0)">
        <path d="M27.2043 58.9532H12.3857V9.04678H27.2043V0H0.926025V68H27.2043V58.9532Z" fill="#356D10"/>
        <path d="M72.6478 0V9.04678H87.4664V58.9532H72.6478V68H98.9261V0H72.6478Z" fill="#356D10"/>
        <path d="M20.9804 22.5672C24.2405 22.5672 24.2405 27.0409 20.9804 27.0409H18.0167V20.1813H22.9562V21.7719H19.6962V22.5672H20.9804ZM19.6962 24.1579V25.5497H20.9804C21.9683 25.5497 21.9683 24.1579 20.9804 24.1579H19.6962Z" fill="#1B1C20"/>
        <path d="M28.7849 21.7719H26.3152V22.6667H28.5873V24.2573H26.3152V25.4503H28.8837V27.0409H24.5369V20.1813H28.7849V21.7719Z" fill="#1B1C20"/>
        <path d="M29.9704 21.8713C29.8716 20.5789 30.9583 19.9824 32.1438 19.9824C33.6257 19.9824 34.416 20.9766 34.416 21.9707C34.416 22.4678 34.2184 22.9649 33.8232 23.2631C34.5148 23.6608 34.8111 24.1579 34.8111 24.9532C34.8111 26.1462 33.922 27.1403 32.1438 27.1403C30.6619 27.1403 29.7728 26.345 29.7728 24.7543H31.3535C31.3535 25.2514 31.7486 25.6491 32.2426 25.6491C33.4281 25.6491 33.4281 24.0584 32.2426 24.0584H31.7486V22.6666H32.2426C33.1317 22.6666 33.1317 21.4736 32.2426 21.4736C31.8474 21.4736 31.6498 21.5731 31.6498 21.8713H29.9704Z" fill="#1B1C20"/>
        <path d="M35.4039 23.5614C35.4039 18.7894 42.418 18.7894 42.418 23.5614C42.418 28.3333 35.4039 28.3333 35.4039 23.5614ZM40.6398 23.5614C40.6398 21.076 37.1821 21.076 37.1821 23.5614C37.1821 26.1462 40.6398 26.1462 40.6398 23.5614Z" fill="#1B1C20"/>
        <path d="M49.2345 27.0409H47.4563V21.7719H45.3817V27.0409H43.5046V20.1813H49.2345V27.0409Z" fill="#1B1C20"/>
        <path d="M51.6055 27.041H49.926V26.7427L52.9885 20.0819H53.7788L56.8413 26.7427V27.041H55.1619L53.3837 22.9649L51.6055 27.041Z" fill="#1B1C20"/>
        <path d="M61.9784 26.1462H59.3111L58.9159 27.0409H57.2365V26.7427L60.299 19.9824H61.0893L64.1518 26.7427V27.0409H62.4724L61.9784 26.1462ZM60.5954 22.8655L59.8051 24.6549H61.3857L60.5954 22.8655Z" fill="#1B1C20"/>
        <path d="M63.5591 21.7719V20.1813H68.6962V21.7719H67.0167V27.0409H65.2385V21.7719H63.5591Z" fill="#1B1C20"/>
        <path d="M75.2163 27.0409H73.3393V24.2573H71.2647V27.0409H69.4865V20.1813H71.2647V22.6667H73.3393V20.1813H75.2163V27.0409Z" fill="#1B1C20"/>
        <path d="M80.6498 26.1462H77.9825L77.5873 27.0409H75.9079V26.7427L78.9704 19.9824H79.7607L82.8232 26.7427V27.0409H81.1438L80.6498 26.1462ZM79.3656 22.8655L78.5752 24.6549H80.1559L79.3656 22.8655Z" fill="#1B1C20"/>
        <path d="M23.6478 37.1813H21.8695V31.9123H19.795V37.1813H18.0167V30.3217H23.6478V37.1813Z" fill="#1B1C20"/>
        <path d="M25.2285 37.1813V30.3217H28.1922C31.4522 30.3217 31.4522 35.4912 28.1922 35.4912H26.9079V37.2807H25.2285V37.1813ZM28.1922 31.9123C27.797 31.9123 27.3031 31.9123 26.9079 31.9123V33.9006H28.1922C29.1801 33.9006 29.1801 31.9123 28.1922 31.9123Z" fill="#1B1C20"/>
        <path d="M35.2063 36.3859H32.539L32.1438 37.2806H30.4644V36.9824L33.5269 30.2222H34.3172L37.3797 36.9824V37.2806H35.7002L35.2063 36.3859ZM33.8232 33.0058L33.0329 34.7953H34.6135L33.8232 33.0058Z" fill="#1B1C20"/>
        <path d="M42.5168 33.6024C43.1095 33.9006 43.3071 34.3977 43.3071 34.9942C43.3071 36.1872 42.6156 37.1813 41.1337 37.1813H37.9724V30.3217H40.9361C42.1216 30.3217 43.1095 31.2164 43.1095 32.4094C43.1095 32.9064 42.9119 33.4035 42.5168 33.6024ZM39.7506 31.9123V33.0059H40.8373C41.5289 33.0059 41.5289 31.9123 40.8373 31.9123H39.7506ZM39.7506 34.4971V35.6901H41.1337C41.8252 35.6901 41.8252 34.4971 41.1337 34.4971H39.7506Z" fill="#1B1C20"/>
        <path d="M44.0974 33.8011C44.0974 29.0292 51.1115 29.0292 51.1115 33.8011C51.1115 38.573 44.0974 38.573 44.0974 33.8011ZM49.3333 33.8011C49.3333 31.3157 45.8756 31.3157 45.8756 33.8011C45.8756 36.2865 49.3333 36.2865 49.3333 33.8011Z" fill="#1B1C20"/>
        <path d="M56.7425 33.6024C57.3353 33.9006 57.5329 34.3977 57.5329 34.9942C57.5329 36.1872 56.8413 37.1813 55.3595 37.1813H52.1982V30.3217H55.1619C56.3474 30.3217 57.3353 31.2164 57.3353 32.4094C57.3353 32.9064 57.0389 33.4035 56.7425 33.6024ZM53.8776 31.9123V33.0059H54.9643C55.6558 33.0059 55.6558 31.9123 54.9643 31.9123H53.8776ZM53.8776 34.4971V35.6901H55.2607C55.9522 35.6901 55.9522 34.4971 55.2607 34.4971H53.8776Z" fill="#1B1C20"/>
        <path d="M62.67 36.3859H60.0026L59.6075 37.2806H57.928V36.9824L60.9905 30.2222H61.7809L64.8434 36.9824V37.2806H63.1639L62.67 36.3859ZM61.2869 33.0058L60.4966 34.7953H62.0772L61.2869 33.0058Z" fill="#1B1C20"/>
        <path d="M18.6095 48.2164H17.1276V45.9299H17.8192L20.1901 40.462H20.9804L23.4502 45.9299H24.1417V48.2164H22.6599V47.4211H18.6095V48.2164ZM19.5974 45.8305H21.5732L20.5853 43.3451L19.5974 45.8305Z" fill="#1B1C20"/>
        <path d="M24.3394 43.9415C24.3394 39.1696 31.3535 39.1696 31.3535 43.9415C31.3535 48.7134 24.3394 48.7134 24.3394 43.9415ZM29.5752 43.9415C29.5752 41.4561 26.1176 41.4561 26.1176 43.9415C26.1176 46.4269 29.5752 46.4269 29.5752 43.9415Z" fill="#1B1C20"/>
        <path d="M38.17 47.4211H36.3918V42.152H34.3172V47.4211H32.5389V40.5614H38.17V47.4211Z" fill="#1B1C20"/>
        <path d="M39.3555 43.9415C39.3555 39.1696 46.3696 39.1696 46.3696 43.9415C46.3696 48.7134 39.3555 48.7134 39.3555 43.9415ZM44.5914 43.9415C44.5914 41.4561 41.1337 41.4561 41.1337 43.9415C41.1337 46.4269 44.5914 46.4269 44.5914 43.9415Z" fill="#1B1C20"/>
        <path d="M53.4825 40.462H54.0752V47.4211H52.297V44.3392L50.914 45.8305H50.7164L49.2345 44.3392V47.4211H47.4563V40.462H48.049L50.8152 43.4445L53.4825 40.462Z" fill="#1B1C20"/>
        <path d="M55.2607 43.9415C55.2607 39.1696 62.2748 39.1696 62.2748 43.9415C62.2748 48.7134 55.2607 48.7134 55.2607 43.9415ZM60.4966 43.9415C60.4966 41.4561 57.0389 41.4561 57.0389 43.9415C57.0389 46.4269 60.4966 46.4269 60.4966 43.9415Z" fill="#1B1C20"/>
        <path d="M65.1397 47.4211H63.3615V40.5614H67.6095V42.0526H65.1397V47.4211Z" fill="#1B1C20"/>
        <path d="M71.7587 46.5263H69.0913L68.6962 47.421H67.0167V47.1228L70.0792 40.3625H70.8695L73.932 47.1228V47.421H72.2526L71.7587 46.5263ZM70.4744 43.2456L69.6841 45.0351H71.2647L70.4744 43.2456Z" fill="#1B1C20"/>
    </g>
    <defs>
        <clipPath id="clip0">
            <rect width="98" height="68" fill="white" transform="translate(0.926025)"/>
        </clipPath>
    </defs>
</svg>