<?xml version="1.0" encoding="UTF-8" standalone="no"?>
<svg
   xmlns:dc="http://purl.org/dc/elements/1.1/"
   xmlns:cc="http://creativecommons.org/ns#"
   xmlns:rdf="http://www.w3.org/1999/02/22-rdf-syntax-ns#"
   xmlns:svg="http://www.w3.org/2000/svg"
   xmlns="http://www.w3.org/2000/svg"
   xmlns:sodipodi="http://sodipodi.sourceforge.net/DTD/sodipodi-0.dtd"
   xmlns:inkscape="http://www.inkscape.org/namespaces/inkscape"
   id="Location-check"
   width="16.513"
   height="20.167"
   viewBox="0 0 16.513 20.167"
   version="1.1"
   sodipodi:docname="marker-icon.svg"
   inkscape:version="1.0.1 (c497b03c, 2020-09-10)">
  <metadata
     id="metadata840">
    <rdf:RDF>
      <cc:Work
         rdf:about="">
        <dc:format>image/svg+xml</dc:format>
        <dc:type
           rdf:resource="http://purl.org/dc/dcmitype/StillImage" />
      </cc:Work>
    </rdf:RDF>
  </metadata>
  <defs
     id="defs838" />
  <sodipodi:namedview
     pagecolor="#ffffff"
     bordercolor="#666666"
     borderopacity="1"
     objecttolerance="10"
     gridtolerance="10"
     guidetolerance="10"
     inkscape:pageopacity="0"
     inkscape:pageshadow="2"
     inkscape:window-width="866"
     inkscape:window-height="480"
     id="namedview836"
     showgrid="false"
     inkscape:zoom="6.2737756"
     inkscape:cx="12.703441"
     inkscape:cy="15.982176"
     inkscape:window-x="0"
     inkscape:window-y="23"
     inkscape:window-maximized="0"
     inkscape:current-layer="Location-check" />
  <g
     id="Location-check-2"
     data-name="Location-check"
     transform="translate(-0.744 -0.5)"
     style="fill:#006ddf;fill-opacity:0.89818174">
    <path
       id="Shape"
       d="M8.256,20.167a1.93,1.93,0,0,1-1.5-.711L1.964,13.594A8.645,8.645,0,0,1,.03,7.377,8.037,8.037,0,0,1,8.04,0h.432a8.038,8.038,0,0,1,8.011,7.377,8.654,8.654,0,0,1-1.934,6.217L9.755,19.456A1.93,1.93,0,0,1,8.256,20.167ZM5.756,7.25a.75.75,0,0,0-.531,1.28l2,2a.75.75,0,0,0,1.061,0l3.5-3.5a.75.75,0,0,0-1.061-1.06L7.756,8.94,6.286,7.47A.746.746,0,0,0,5.756,7.25Z"
       transform="translate(0.744 0.5)"
       style="fill:#006ddf;fill-opacity:0.89818174" />
  </g>
</svg>
